HIERARCHY
ROOT SimulationBone
{
	OFFSET 0.000000 0.000000 0.000000
	CHANNELS 6 Xposition Yposition Zposition Zrotation Yrotation Xrotation 
	JOINT Hips
	{
		OFFSET 0.000000 0.000000 0.000000
		CHANNELS 6 Xposition Yposition Zposition Zrotation Yrotation Xrotation 
		JOINT LeftUpLeg
		{
			OFFSET 0.103462 1.857831 10.548502
			CHANNELS 3 Zrotation Yrotation Xrotation
			JOINT LeftLeg
			{
				OFFSET 43.500008 -0.000027 -0.000004
				CHANNELS 3 Zrotation Yrotation Xrotation
				JOINT LeftFoot
				{
					OFFSET 42.372200 0.000011 -0.000002
					CHANNELS 3 Zrotation Yrotation Xrotation
					JOINT LeftToe
					{
						OFFSET 17.299999 -0.000001 -0.000002
						CHANNELS 3 Zrotation Yrotation Xrotation
						End Site
						{
							OFFSET 0.000000 0.000000 0.000000
						}
					}
				}
			}
		}
		JOINT RightUpLeg
		{
			OFFSET 0.103458 1.857828 -10.548501
			CHANNELS 3 Zrotation Yrotation Xrotation
			JOINT RightLeg
			{
				OFFSET 43.500038 -0.000031 0.000011
				CHANNELS 3 Zrotation Yrotation Xrotation
				JOINT RightFoot
				{
					OFFSET 42.372257 -0.000004 0.000010
					CHANNELS 3 Zrotation Yrotation Xrotation
					JOINT RightToe
					{
						OFFSET 17.299994 -0.000005 0.000004
						CHANNELS 3 Zrotation Yrotation Xrotation
						End Site
						{
							OFFSET 0.000000 0.000000 0.000000
						}
					}
				}
			}
		}
		JOINT Spine
		{
			OFFSET 6.901966 -2.603733 0.000000
			CHANNELS 3 Zrotation Yrotation Xrotation
			JOINT Spine1
			{
				OFFSET 12.588101 0.000002 0.000000
				CHANNELS 3 Zrotation Yrotation Xrotation
				JOINT Spine2
				{
					OFFSET 12.343201 0.000004 -0.000002
					CHANNELS 3 Zrotation Yrotation Xrotation
					JOINT Neck
					{
						OFFSET 25.832895 -0.000004 0.000002
						CHANNELS 3 Zrotation Yrotation Xrotation
						JOINT Head
						{
							OFFSET 11.766604 0.000011 0.000001
							CHANNELS 3 Zrotation Yrotation Xrotation
							End Site
							{
								OFFSET 0.000000 0.000000 0.000000
							}
						}
					}
					JOINT LeftShoulder
					{
						OFFSET 19.745903 -1.480368 6.000108
						CHANNELS 3 Zrotation Yrotation Xrotation
						JOINT LeftArm
						{
							OFFSET 11.284126 -0.000007 -0.000022
							CHANNELS 3 Zrotation Yrotation Xrotation
							JOINT LeftForeArm
							{
								OFFSET 33.000053 0.000001 0.000028
								CHANNELS 3 Zrotation Yrotation Xrotation
								JOINT LeftHand
								{
									OFFSET 25.200005 0.000019 0.000013
									CHANNELS 3 Zrotation Yrotation Xrotation
									End Site
									{
										OFFSET 0.000000 0.000000 0.000000
									}
								}
							}
						}
					}
					JOINT RightShoulder
					{
						OFFSET 19.746094 -1.480373 -6.000072
						CHANNELS 3 Zrotation Yrotation Xrotation
						JOINT RightArm
						{
							OFFSET 11.284138 -0.000017 -0.000010
							CHANNELS 3 Zrotation Yrotation Xrotation
							JOINT RightForeArm
							{
								OFFSET 33.000092 0.000013 0.000009
								CHANNELS 3 Zrotation Yrotation Xrotation
								JOINT RightHand
								{
									OFFSET 25.199776 0.000139 0.000415
									CHANNELS 3 Zrotation Yrotation Xrotation
									End Site
									{
										OFFSET 0.000000 0.000000 0.000000
									}
								}
							}
						}
					}
				}
			}
		}
	}
}
MOTION
Frames: 8
Frame Time: 0.016667
-144.350097 0.000000 10.104800 0.000000 22.260419 0.000000 1.981132 87.760134 -0.078994 100.341135 3.086458 -177.885579 169.965436 -6.591125 168.690952 -68.099721 0.676592 -3.487039 66.322506 0.340576 -5.699363 21.454546 0.003091 0.000002 168.795527 3.651201 -172.358860 -33.360887 4.932859 3.943744 78.323655 -2.684524 0.885943 21.454559 -0.003108 -0.000017 9.635846 1.996608 0.264961 9.276375 3.965445 0.689581 8.957457 3.969671 0.665591 11.682325 -0.672530 -5.641620 -8.435830 8.646516 -8.345762 174.798083 -80.212573 3.713918 -48.414327 63.879723 -16.575383 -64.162312 -15.879086 2.317168 1.329981 -0.837630 45.792467 -164.245199 71.015280 17.592446 -25.718587 -49.292359 -15.170394 -24.465016 13.351555 -1.054220 10.502456 -0.043828 -19.005469 
-143.456054 0.000000 9.407527 0.000000 21.614356 0.000000 1.955557 87.940109 -0.155537 100.174982 3.095181 -177.896501 167.474613 -7.557493 168.231630 -71.792923 0.585113 -3.301231 64.182856 -0.368669 -6.897406 21.454551 0.003093 0.000002 169.551086 3.763109 -172.997914 -32.753942 5.270530 3.824424 78.628918 -2.567218 1.038703 21.454558 -0.003108 -0.000017 9.599932 2.115624 0.380371 9.210243 4.194160 0.928591 8.891242 4.199826 0.903214 11.772796 -0.465811 -5.778861 -8.548368 8.515655 -8.447055 177.574837 -79.988018 0.900709 -47.461565 65.373023 -17.143359 -61.203671 -16.240090 2.228343 1.585915 -1.991643 45.494137 -163.812811 71.085669 18.037176 -25.854932 -48.864463 -15.192168 -25.359629 13.586928 -1.083246 10.169883 -0.182155 -19.147102 
-142.568667 0.000000 8.692736 0.000000 20.904560 0.000000 1.931749 88.143584 -0.263964 100.065169 2.889601 -178.038862 165.311533 -8.346443 167.536154 -74.770027 0.653423 -2.804020 64.624933 -0.906239 -7.408292 21.454555 0.003094 0.000001 170.322124 4.110038 -173.624362 -32.171941 5.510906 3.546663 78.901692 -2.340708 1.180042 21.454553 -0.003107 -0.000017 9.594318 2.166751 0.495039 9.204035 4.287166 1.161715 8.885019 4.294238 1.135769 11.663993 -0.217231 -5.904358 -8.560726 8.329119 -8.507039 -179.722623 -79.848952 -1.840954 -46.280497 66.558793 -17.257880 -57.841158 -16.542352 2.122318 1.495252 -3.410909 45.082718 -163.333430 71.082033 18.530909 -26.144704 -48.406381 -15.126482 -26.387037 13.764743 -1.111632 9.678933 -0.288225 -18.527363 
-141.687191 0.000000 7.960910 0.000000 20.132629 0.000000 1.908133 88.355118 -0.397605 99.982410 2.551460 -178.282332 163.363426 -9.072002 166.848790 -77.115143 0.680399 -2.032386 66.412455 -1.221835 -7.050888 21.454555 0.003094 -0.000000 171.075079 4.606294 -174.324500 -31.606952 5.703680 3.190709 79.144673 -2.058126 1.326729 21.454550 -0.003107 -0.000017 9.605815 2.172668 0.612966 9.231500 4.289423 1.398340 8.912522 4.297923 1.372376 11.447064 0.075442 -6.021931 -8.470602 8.101187 -8.533395 -177.594016 -79.751332 -4.001635 -44.742552 67.353039 -16.510916 -54.073148 -16.865530 2.011422 1.518143 -4.945435 44.064312 -162.905844 71.039558 18.971667 -26.501534 -47.968158 -15.014808 -27.478683 13.935792 -1.141042 9.119990 -0.358666 -17.292408 
-140.812164 0.000000 7.211296 0.000000 19.298614 0.000000 1.882751 88.560394 -0.551002 99.901702 2.165503 -178.594658 161.519758 -9.803398 166.497692 -78.891264 0.406693 -1.107961 67.984050 -1.375533 -5.915622 21.454549 0.003093 -0.000001 171.783842 5.174338 -175.150577 -31.045728 5.896138 2.820797 79.355156 -1.762668 1.483597 21.454553 -0.003107 -0.000017 9.622291 2.158080 0.735336 9.268643 4.250247 1.642353 8.949735 4.260220 1.616624 11.240226 0.356992 -6.127921 -8.340385 7.881903 -8.547048 -176.463576 -79.628830 -5.148644 -42.804109 67.685985 -14.662353 -49.873544 -17.243287 1.896916 2.103523 -6.384469 41.948649 -162.631191 71.033013 19.254524 -26.853084 -47.615098 -14.901864 -28.574797 14.148084 -1.174107 8.557426 -0.350011 -15.595850 
-139.943959 0.000000 6.442921 0.000000 18.399772 0.000000 1.848760 88.746033 -0.717875 99.842470 1.743601 -178.912249 159.839814 -10.493388 166.475493 -80.079124 -0.016752 -0.206241 68.964078 -1.608212 -4.919733 21.454545 0.003093 -0.000001 172.441608 5.794405 -175.806242 -30.563518 5.927281 2.337160 79.563657 -1.378544 1.658517 21.454558 -0.003108 -0.000017 9.651321 2.124319 0.846724 9.329986 4.173376 1.863261 9.011161 4.184684 1.837999 11.067849 0.540209 -6.208179 -8.294815 7.814456 -8.590949 -176.079517 -79.522090 -5.537714 -40.746608 67.665602 -12.168134 -45.199216 -17.523641 1.768760 3.065102 -7.498692 38.760650 -162.457537 71.052911 19.433089 -27.308871 -47.334361 -14.740079 -29.662773 14.403938 -1.211141 8.047592 -0.229184 -13.547328 
-139.083278 0.000000 5.657174 0.000000 17.431919 0.000000 1.801101 88.898900 -0.893512 99.825912 1.291996 -179.169320 158.400833 -11.084660 166.716739 -80.648986 -0.392589 0.470075 69.354529 -2.056800 -4.888525 21.454548 0.003094 0.000000 173.053100 6.447973 -176.057084 -30.228479 5.676541 1.664632 79.804053 -0.850236 1.860880 21.454557 -0.003108 -0.000017 9.701666 2.071312 0.929681 9.432392 4.059873 2.026432 9.113643 4.072168 2.001859 10.925438 0.558894 -6.249339 -8.431311 7.997679 -8.692533 -176.030416 -79.479755 -5.587107 -38.834034 67.437784 -9.519041 -40.085903 -17.508222 1.629501 4.161149 -8.086766 34.732014 -162.317308 71.083578 19.577175 -27.983683 -47.111057 -14.463119 -30.744355 14.698372 -1.251574 7.629839 0.013096 -11.300937 
-138.233001 0.000000 4.854529 0.000000 16.395020 0.000000 1.743674 89.005913 -1.071242 99.839340 0.869874 -179.327628 157.167243 -11.567596 167.281920 -80.644568 -0.721294 0.722873 69.485597 -2.406883 -5.417015 21.454555 0.003094 0.000001 173.622972 7.091705 -176.268331 -30.003794 5.390461 1.000944 80.087922 -0.321603 2.099153 21.454555 -0.003108 -0.000017 9.767181 2.016856 0.975370 9.563711 3.946112 2.115404 9.245020 3.958947 2.091521 10.785984 0.462899 -6.252543 -8.674930 8.260357 -8.796047 -175.947995 -79.503690 -5.671107 -36.983864 67.051848 -6.702439 -34.890774 -16.998580 1.461777 5.683225 -7.997154 30.316593 -162.223822 71.171026 19.672489 -28.843150 -47.003575 -14.008715 -31.832055 15.042768 -1.295528 7.272417 0.315387 -9.234762 
